<svg width="419" height="355" viewBox="0 0 419 355" fill="none" xmlns="http://www.w3.org/2000/svg">
<path d="M210.644 135.18C210.522 135.18 210.399 135.178 210.277 135.173C200.397 134.803 179.331 140.718 160.599 155.518C142.342 169.943 127.307 192.019 127.307 223.294C127.307 236.045 131.772 255.021 143.982 271.003C155.878 286.575 175.468 299.792 207.064 301.377H256.976C281.965 301.377 306.616 305.617 336.26 329.003C342.261 332.886 355.782 340.646 370.569 343.602C384.527 346.393 398.139 344.76 408.617 332.985V202.519C406.839 191.091 399.572 173.527 383.055 159.211C366.466 144.833 339.889 133.173 298.526 135.169C298.369 135.176 298.211 135.18 298.054 135.18H210.644ZM410.41 330.831C410.408 330.833 410.406 330.835 410.404 330.837C410.406 330.835 410.408 330.833 410.409 330.831L410.41 330.831Z" stroke="white" stroke-width="19.6087" stroke-linejoin="round"/>
<path fill-rule="evenodd" clip-rule="evenodd" d="M0 76.6581V210.912C0 211.199 0.100493 211.487 0.27709 211.714C27.8334 247.092 75.5101 219.925 87.8874 211.833C115.591 189.861 138.041 186.04 161.445 186.04H211.598C280.858 182.696 300.919 127.409 300.919 98.1522C300.919 28.4154 233.252 -0.72099 207.777 0.234272H120.368C33.2444 -3.96904 3.82119 49.4321 0 76.6581ZM206.853 80.0092C194.439 84.2237 179.449 96.7071 167.431 109.324C160.952 116.128 149.526 112.847 147.268 103.987C144.221 92.0327 141.02 87.0539 138.434 85.2757C136.639 84.0417 133.827 83.5738 127.529 86.7324C121.27 89.8716 113.507 95.6479 103.384 103.488C101.993 104.565 100.564 105.676 99.0965 106.817C90.0615 113.841 79.5496 122.013 67.4235 130.502L60.5812 120.727C72.4432 112.424 82.7043 104.447 91.744 97.42L91.7446 97.4195L91.7765 97.3947C93.2417 96.2557 94.6749 95.1417 96.0776 94.0553C105.968 86.3951 114.682 79.8276 122.18 76.0671C129.639 72.3259 137.862 70.4024 145.194 75.4439C151.726 79.9348 155.742 88.9434 158.817 100.988C158.833 100.996 158.852 101.003 158.873 101.009C171.068 88.2199 187.709 73.9079 203.018 68.7109C210.807 66.0667 219.299 65.4425 226.666 69.9011C233.977 74.326 238.586 82.8029 240.879 94.6513L229.165 96.9185C227.174 86.6313 223.679 82.0401 220.488 80.1086C217.352 78.2107 212.943 77.9419 206.853 80.0092ZM186.896 124.729C191.069 128.576 199.668 126.037 206.102 119.057C212.537 112.078 214.37 103.301 210.197 99.4538C206.024 95.6067 197.425 98.146 190.99 105.126C184.556 112.105 182.723 120.882 186.896 124.729Z" fill="white"/>
<path d="M262.108 261.086C257.749 261.086 253.809 260.28 250.286 258.668C246.764 257.026 243.972 254.652 241.912 251.548C239.882 248.443 238.867 244.637 238.867 240.129C238.867 236.248 239.614 233.054 241.106 230.546C242.599 228.038 244.614 226.053 247.152 224.59C249.689 223.128 252.525 222.023 255.66 221.277C258.794 220.53 261.989 219.963 265.243 219.575C269.362 219.097 272.706 218.709 275.273 218.411C277.841 218.082 279.706 217.56 280.871 216.844C282.035 216.127 282.617 214.963 282.617 213.351V213.037C282.617 209.126 281.512 206.096 279.303 203.947C277.124 201.798 273.87 200.723 269.541 200.723C265.034 200.723 261.481 201.723 258.884 203.723C256.316 205.693 254.54 207.888 253.555 210.306L240.972 207.44C242.465 203.26 244.644 199.887 247.51 197.32C250.406 194.722 253.734 192.842 257.496 191.677C261.257 190.483 265.213 189.886 269.362 189.886C272.109 189.886 275.019 190.215 278.094 190.871C281.199 191.498 284.095 192.663 286.782 194.364C289.498 196.066 291.722 198.499 293.454 201.663C295.185 204.798 296.051 208.873 296.051 213.888V259.563H282.975V250.16H282.438C281.572 251.891 280.274 253.593 278.542 255.264C276.811 256.936 274.587 258.324 271.87 259.429C269.153 260.533 265.899 261.086 262.108 261.086ZM265.019 250.339C268.72 250.339 271.885 249.607 274.512 248.144C277.169 246.682 279.184 244.771 280.557 242.413C281.96 240.024 282.662 237.472 282.662 234.755V225.889C282.184 226.367 281.259 226.814 279.885 227.232C278.542 227.62 277.005 227.964 275.273 228.262C273.542 228.531 271.855 228.785 270.213 229.024C268.571 229.233 267.198 229.412 266.093 229.561C263.496 229.889 261.123 230.442 258.973 231.218C256.854 231.994 255.152 233.113 253.869 234.576C252.615 236.009 251.988 237.92 251.988 240.308C251.988 243.622 253.212 246.129 255.66 247.831C258.108 249.503 261.227 250.339 265.019 250.339Z" fill="white"/>
</svg>
