<svg width="25" height="19" viewBox="0 0 25 19" fill="none" xmlns="http://www.w3.org/2000/svg">
<path d="M10.8418 1.00288e-05C12.0011 1.00288e-05 13.0823 0.792558 13.4726 2.06288C13.6159 2.59388 13.6742 3.12602 13.7301 3.6389L13.7825 4.10537C13.9829 5.66214 13.9829 13.3101 13.7825 14.8782L13.7301 15.3617C13.68 15.8496 13.6287 16.3546 13.4808 16.8935C13.0905 18.1605 12.05 18.9825 10.8686 18.9825C10.8313 18.9825 10.794 18.9824 10.7521 18.9813C10.0996 18.9813 9.39008 18.6009 8.98811 18.2692L5.06986 15.1681H3.05771C1.50463 15.1681 0.367481 14.1004 0.161257 12.4485C-0.076425 10.7967 -0.0298207 7.96276 0.161257 6.46147C0.386123 4.89791 1.57686 3.81439 3.05771 3.81439H5.06986L8.91355 0.758592C9.37726 0.37591 10.1952 -0.00224425 10.8418 1.00288e-05ZM20.3223 0.23314C20.786 -0.0793469 21.4233 0.035005 21.7414 0.482223C23.4844 2.91758 24.4444 6.1183 24.4444 9.49112C24.4444 12.8662 23.4844 16.0658 21.7414 18.5011C21.5515 18.7672 21.2381 18.9268 20.9037 18.9268C20.6963 18.9268 20.4959 18.8657 20.3234 18.7502C19.8621 18.4366 19.7479 17.8196 20.0671 17.3712C21.5748 15.2631 22.4055 12.4643 22.4055 9.49112C22.4055 6.5191 21.5748 3.72031 20.0671 1.61216C19.7479 1.16494 19.8621 0.546758 20.3223 0.23314ZM16.8092 3.43624C17.2741 3.12488 17.9091 3.23697 18.2295 3.68532C19.355 5.25908 19.976 7.32081 19.976 9.49123C19.976 11.6617 19.355 13.7234 18.2295 15.2971C18.0384 15.5632 17.7262 15.7228 17.3918 15.7228C17.1844 15.7228 16.9828 15.6617 16.8104 15.5462C16.349 15.2326 16.2348 14.6144 16.5553 14.1672C17.4466 12.9207 17.9371 11.2597 17.9371 9.49123C17.9371 7.72161 17.4466 6.0618 16.5553 4.81525C16.2348 4.36804 16.349 3.74986 16.8092 3.43624Z" fill="white"/>
</svg>
